PathFileType	4	(X/Y/Z)	D:\TRACE\v60_Jaco2_6-2-23\JustArmDRS_Motion3_3-v60.trc
DataRate	CameraRate	NumFrames	NumMarkers	Units	OrigDataRate	OrigDataStartFrame	OrigNumFrames
100.00	100.00	      31	9	mm	100.00	6126	      7000
Frame#	Time	front left toe			Front right toe			aft left toe			aft right toe			Arm			FL body			FR body			AL Body			AR Body			
		X1	Y1	Z1	X2	Y2	Z2	X3	Y3	Z3	X4	Y4	Z4	X5	Y5	Z5	X6	Y6	Z6	X7	Y7	Z7	X8	Y8	Z8	X9	Y9	Z9	

6126	61.250	-166.61652	19.61557	-235.49042	232.13153	18.17760	-169.46559	-256.03653	18.47722	403.16663	153.70193	15.20556	417.94678	45.70222	1103.49866	-630.15649	-26.60456	588.70276	-345.91431	130.07573	589.08087	-325.12546	-144.13789	577.73370	591.09833	6.28659	569.08209	610.56854	
6127	61.260	-166.61433	19.63816	-235.45401	232.43169	18.37520	-169.38066	-256.00949	18.42406	403.12949	153.78192	15.21109	417.92755	45.91056	1103.56409	-630.04462	-26.68124	588.81775	-345.97791	130.03831	589.13068	-325.12048	-144.12874	577.67603	591.09241	6.29925	569.04755	610.59833	
6128	61.270	-166.63049	19.67432	-235.45482	232.30728	18.41604	-169.33327	-256.02887	18.36632	403.16199	153.81175	15.21201	417.96576	45.95136	1103.60693	-629.96045	-27.05547	589.21960	-346.31891	130.00270	589.17401	-325.10135	-144.19011	577.66608	591.11505	6.27878	568.98712	610.62280	
6129	61.280	-166.63277	19.74315	-235.41345	232.29315	18.37460	-169.35986	-256.06915	18.26227	403.13095	153.72858	15.13949	417.98715	46.01141	1103.63818	-629.87860	-27.08375	589.24921	-346.27951	130.00252	589.20874	-325.07187	-144.24509	577.58582	591.14703	6.22439	568.93188	610.62567	
6130	61.290	-166.72176	19.81950	-235.37355	232.11801	18.30509	-169.38945	-256.13831	18.16059	403.14536	153.52269	14.98956	418.06525	46.11261	1103.68250	-629.71112	-27.09224	589.31781	-346.23019	130.03038	589.25067	-325.01404	-144.26543	577.49066	591.17828	6.19729	568.85394	610.63776	
6131	61.300	-166.84029	19.91593	-235.33865	231.87987	18.23718	-169.49727	-256.25739	18.04426	403.15149	153.53728	14.93514	418.14343	45.96262	1103.71179	-629.55310	-27.09319	589.37604	-346.13977	130.03275	589.26697	-324.95682	-144.38124	577.45837	591.18768	6.16790	568.75238	610.66760	
6132	61.310	-166.95448	20.00284	-235.27849	231.58791	18.13574	-169.60654	-256.40582	17.97164	403.25293	153.46738	14.82320	418.21820	45.90976	1103.82507	-629.38477	-27.08860	589.42267	-346.08643	130.04466	589.28119	-324.91818	-144.40485	577.41455	591.19373	6.14059	568.65063	610.66461	
6133	61.320	-167.07790	20.11289	-235.25499	231.48796	18.21326	-169.62161	-256.53827	17.84247	403.34283	153.43079	14.73641	418.37021	45.77468	1103.94739	-629.22345	-27.07890	589.50513	-346.05557	130.07140	589.30048	-324.88199	-144.37738	577.38556	591.19910	6.21175	568.50208	610.69470	
6134	61.330	-167.29053	20.21152	-235.19455	231.05653	18.21060	-169.73195	-256.71967	17.76898	403.38263	153.34688	14.56958	418.37790	45.68591	1104.17700	-629.02319	-27.10341	589.61292	-346.01379	130.05817	589.31433	-324.87573	-144.37416	577.28839	591.27887	6.18561	568.26819	610.74231	
6135	61.340	-167.60007	20.37878	-235.11847	230.94130	18.32347	-169.65698	-256.90204	17.65376	403.36096	153.30040	14.40423	418.43100	45.71253	1104.33740	-628.86676	-27.16307	589.74591	-345.94022	130.02579	589.34564	-324.82095	-144.27859	577.06384	591.35010	6.26852	568.05084	610.81024	
6136	61.350	-167.80292	20.42873	-235.00850	230.76909	18.38826	-169.69595	-257.01889	17.56734	403.34479	153.06645	14.18927	418.38818	45.75807	1104.57751	-628.63574	-27.25087	589.86938	-345.83972	129.92755	589.40833	-324.79462	-144.16229	576.87958	591.49432	6.24207	567.87659	610.90387	
6137	61.360	-167.95740	20.48213	-234.94469	230.66280	18.51737	-169.66962	-257.16962	17.47005	403.32889	152.85587	13.94891	418.36453	45.87796	1104.78101	-628.40424	-27.28090	589.96344	-345.71265	129.83047	589.48340	-324.69693	-144.08028	576.74750	591.59564	6.16724	567.73077	611.01636	
6138	61.370	-168.12123	20.57810	-234.83926	230.56792	18.52558	-169.71257	-257.29153	17.36059	403.36752	152.66150	13.89844	418.45471	45.92299	1104.94775	-628.21832	-27.31306	590.07581	-345.64264	130.12320	589.58887	-324.72934	-144.03595	576.65588	591.67853	6.22659	567.58661	611.20868	
6139	61.380	-168.26874	20.68727	-234.76146	230.38014	18.53151	-169.82420	-257.48056	17.28779	403.33612	152.34419	13.61404	418.41522	46.18759	1105.06970	-627.92584	-27.35282	590.18195	-345.50967	129.68201	589.66779	-324.36868	-144.00986	576.55096	591.83612	6.26627	567.48999	611.38977	
6140	61.390	-168.53368	20.88743	-234.67290	230.08595	18.51944	-169.93576	-257.63181	17.14397	403.39285	151.84250	13.40589	418.46603	46.21678	1105.09265	-627.58557	-27.43813	590.26654	-345.39206	130.09106	589.75879	-324.33704	-144.02646	576.47314	591.95825	6.17957	567.40448	611.63049	
6141	61.400	-168.65414	20.93456	-234.61559	229.79869	18.55247	-169.95854	-257.74207	17.06518	403.48257	151.52391	13.25113	418.42075	45.98070	1105.17615	-627.19421	-27.45189	590.33246	-345.27002	130.00273	589.78467	-324.11664	-144.08058	576.34576	592.16754	5.95885	567.34729	611.85443	
6142	61.410	-168.71188	20.89061	-234.55144	229.67325	18.81872	-169.75853	-257.79370	16.77376	403.61172	151.25891	13.15099	418.51816	45.99595	1105.23511	-626.85846	-27.49848	590.41406	-345.11002	129.93764	589.73352	-323.84796	-144.27858	576.21674	592.38013	5.88125	567.26019	611.97693	
6143	61.420	-168.82910	20.93347	-234.52371	229.72290	19.04850	-169.40120	-257.92349	16.60427	403.66132	151.10074	13.02494	418.54178	46.13365	1105.34497	-626.58032	-27.62226	590.54639	-344.95419	129.88361	589.75409	-323.62393	-144.46483	576.01117	592.48883	5.79954	567.10919	612.10443	
6144	61.430	-168.98637	20.98630	-234.47078	229.75029	19.19567	-169.20627	-256.93430	15.92311	403.69748	151.04796	12.97747	418.58936	46.18328	1105.43542	-626.44476	-27.61732	590.62714	-344.77188	129.69246	589.81653	-323.43359	-144.56552	575.96619	592.62811	5.64654	566.88385	612.28833	
6145	61.440	-169.28935	21.15102	-234.39377	229.60612	19.34668	-168.83455	-257.54309	15.92307	403.62177	150.95561	12.82916	418.60889	46.31035	1105.58252	-626.21979	-27.66290	590.72375	-344.56665	129.41634	589.82770	-323.14301	-144.50859	575.72375	592.83221	5.39730	566.62323	612.38501	
6146	61.450	-169.71431	21.40765	-234.32852	229.36130	19.53787	-168.37671	-258.67496	16.06316	403.66827	150.51195	12.57854	418.66425	46.52370	1105.86755	-625.96399	-27.77892	590.82275	-344.40570	129.23639	589.87799	-323.03760	-144.61746	575.54321	593.01575	5.18643	566.42145	612.45490	
6147	61.460	-169.84244	21.47675	-234.24715	228.91969	19.45038	-168.47821	-259.26419	16.14799	403.89099	150.42146	12.50459	418.79056	46.71541	1106.20032	-625.56512	-27.91072	590.91406	-344.28745	129.14549	589.94824	-322.93518	-144.61217	575.37714	593.15369	4.86499	566.20532	612.52747	
6148	61.470	-170.02161	21.53095	-234.15820	228.50467	19.28596	-168.61047	-259.60999	15.95977	404.00830	150.32153	12.38358	418.89529	47.09265	1106.48547	-625.14099	-28.00672	590.96478	-344.16055	129.06161	590.02771	-322.78583	-144.78787	575.28387	593.22540	4.59771	566.08478	612.60382	
6149	61.480	-170.20677	21.63291	-234.12163	228.38454	19.26231	-168.67181	-259.87048	15.85699	404.06433	150.12759	12.23248	418.91901	47.21503	1106.67334	-624.60028	-28.06745	591.06683	-343.96219	129.08557	590.03912	-322.67484	-145.01233	575.20947	593.29590	4.46479	565.93762	612.75110	
6150	61.490	-170.54561	21.83675	-234.04594	228.02013	19.28938	-168.68845	-260.05643	15.71478	404.11111	149.97000	12.14995	418.95328	47.21697	1106.82910	-624.28711	-28.08939	591.19971	-343.77512	129.04961	590.14526	-322.56363	-145.20543	575.09509	593.38818	4.55085	565.70056	612.94965	
6151	61.500	-170.83083	22.01114	-234.05042	227.82950	19.37880	-168.67218	-260.22403	15.64127	404.15393	149.56065	11.91353	418.93109	47.19166	1107.02856	-624.04974	-28.26048	591.40338	-343.54974	128.94926	590.37341	-322.43808	-145.60001	574.84131	593.47870	4.47463	565.48871	613.07159	
6152	61.510	-171.06792	22.12140	-234.01030	227.52094	19.46516	-168.74277	-260.30936	15.50487	404.18033	148.88696	11.58465	418.91168	47.12411	1107.19666	-623.86176	-28.27677	591.48743	-343.46292	128.80092	590.59174	-322.25214	-145.59866	574.71991	593.54144	4.22904	565.29565	613.35706	
6153	61.520	-171.48505	22.27129	-234.01123	227.15639	19.46434	-168.85843	-260.60370	15.28693	404.12146	148.41443	11.36698	418.94879	46.96635	1107.40808	-623.64124	-27.90300	591.24628	-342.87360	128.56490	590.82599	-322.09494	-146.09041	574.48962	593.73828	3.99744	565.19012	613.68109	
6154	61.530	-171.76324	22.36130	-233.96051	226.74065	19.48474	-169.02094	-260.88727	15.11335	404.17636	148.21390	11.29408	419.00018	47.05316	1107.63013	-623.16455	-28.08172	591.44086	-342.73538	128.85632	590.90076	-322.07855	-146.27644	574.41425	593.92926	3.90175	564.95947	613.75427	
6155	61.540	-171.97847	22.52263	-233.86737	226.69687	19.62434	-168.80545	-261.10361	15.01526	404.22455	148.15474	11.17354	419.17831	47.02891	1107.89172	-622.59491	-28.33400	591.66919	-342.65045	128.63799	590.97992	-321.83594	-146.34964	574.31927	594.14587	3.83839	564.71051	613.90497	
6156	61.550	-172.26118	22.71678	-233.79393	226.60219	19.94246	-168.47864	-261.35568	14.84779	404.34836	148.13095	11.13137	419.36548	46.90865	1108.11853	-622.21368	-28.60713	591.86072	-342.56934	128.46704	590.99115	-321.58344	-146.44197	574.07092	594.38947	3.67240	564.49438	614.20111	
